<?xml version="1.0" encoding="UTF-8" standalone="no"?><!-- Generator: Gravit.io --><svg xmlns="http://www.w3.org/2000/svg" xmlns:xlink="http://www.w3.org/1999/xlink" style="isolation:isolate" viewBox="0 0 800 600" width="800pt" height="600pt"><defs><clipPath id="_clipPath_QyKVGSdMqzFY3p5YJc2HIogS2YKs6a0K"><rect width="800" height="600"/></clipPath></defs><g clip-path="url(#_clipPath_QyKVGSdMqzFY3p5YJc2HIogS2YKs6a0K)"><rect width="800" height="600" style="fill:rgb(0,0,0)" fill-opacity="0"/><g><path d=" M 92.01 600 L 253.299 600 L 266.678 563.978 C 271.418 551.218 281.117 540.959 293.517 535.348 C 305.199 530.064 320.92 520.469 336.161 503.362 C 365.817 470.074 381.553 434.364 381.553 434.364 L 281.597 433.875 C 281.597 433.875 290.593 377.962 240.914 303.702 C 235.596 295.754 233.177 286.215 234.006 276.688 L 238.715 222.528 C 238.715 222.528 272.475 184.801 251.762 137.995 C 251.762 137.995 231.956 110.572 224.098 120.613 C 224.098 120.613 164.271 263.079 158.823 284.264 C 153.376 305.447 146.113 318.763 153.376 385.34 C 155.299 402.964 155.99 417.663 155.966 429.748 C 155.919 452.949 150.737 475.851 140.815 496.825 L 92.01 600 Z " fill="rgb(246,189,156)"/><g opacity="0.199997" style="mix-blend-mode:multiply;"><path d=" M 242.443 507.583 C 227.472 490.961 206.675 493.586 184.804 486.003 C 162.934 478.423 155.92 423.761 155.92 423.761 L 155.917 423.754 C 155.952 425.816 155.969 427.819 155.965 429.748 C 155.918 452.949 150.737 475.851 140.815 496.825 L 92.01 600 L 253.299 600 L 266.678 563.978 C 271.418 551.218 281.117 540.959 293.517 535.348 C 303.459 530.85 316.327 523.228 329.333 510.513 C 284.91 529.186 257.414 524.204 242.443 507.583 Z " fill="rgb(246,189,156)"/></g><path d=" M 471.733 25.621 C 471.733 25.621 505.895 2.757 513.697 17.821 C 521.498 32.884 469.311 86.188 469.311 86.188 L 471.733 25.621 Z " fill="rgb(243,159,110)"/><path d=" M 471.733 125.245 C 471.733 125.245 505.895 102.382 513.697 117.446 C 521.498 132.51 469.311 185.814 469.311 185.814 L 471.733 125.245 Z " fill="rgb(243,159,110)"/><path d=" M 471.733 193.122 C 471.733 193.122 505.895 170.257 513.697 185.321 C 521.498 200.385 469.311 253.689 469.311 253.689 L 471.733 193.122 Z " fill="rgb(243,159,110)"/><path d=" M 448.138 0 L 260.59 0 C 246.626 0 235.301 11.32 235.301 25.289 L 235.301 337.383 L 235.301 408.585 C 235.301 422.664 246.744 433.874 260.59 433.874 L 448.138 433.874 C 462.099 433.874 473.428 422.558 473.428 408.585 L 473.428 96.491 L 473.428 25.289 C 473.428 11.196 461.971 0 448.138 0 Z " fill="rgb(55,56,58)"/><g opacity="0.199997" style="mix-blend-mode:multiply;"><path d=" M 252.386 322.28 C 252.386 322.28 218.464 405.32 221.755 421.022 C 225.046 436.724 245.63 457.719 296.138 450.72 C 346.644 443.722 381.554 434.364 381.554 434.364 C 381.554 434.364 383.664 322.295 381.554 316.611 C 379.443 310.928 288.632 270.59 285.059 270.59 C 281.487 270.59 252.386 322.28 252.386 322.28 Z " fill="rgb(246,189,156)"/></g><path d=" M 461.167 399.407 L 247.56 399.407 L 247.56 34.468 L 461.167 34.468 L 461.167 399.407 Z " fill="rgb(254,254,254)"/><path d=" M 409.251 247.323 L 223.738 247.323 C 217.33 247.323 212.135 252.518 212.135 258.926 L 212.135 335.482 C 212.135 341.89 217.33 347.085 223.738 347.085 L 369.792 347.085 C 375.703 355.333 386.42 370.104 387.367 370.104 C 388.251 370.104 386.546 356.152 385.345 347.085 L 409.251 347.085 C 415.658 347.085 420.855 341.89 420.855 335.482 L 420.855 258.926 C 420.855 252.518 415.658 247.323 409.251 247.323 Z " fill="rgb(125,141,150)"/><path d=" M 475.656 73.874 L 278.166 73.874 C 271.757 73.874 266.563 79.069 266.563 85.477 L 266.563 167.758 C 266.563 174.167 271.757 179.36 278.166 179.36 L 298.674 179.36 C 297.483 188.419 295.926 201.412 296.78 201.412 C 297.691 201.412 307.643 187.743 313.659 179.36 L 475.656 179.36 C 482.064 179.36 487.259 174.167 487.259 167.758 L 487.259 85.477 C 487.259 79.069 482.064 73.874 475.656 73.874 Z " fill="rgb(158,215,210)"/><path d=" M 398.403 22.998 L 310.671 22.998 C 309.657 22.998 308.835 22.176 308.835 21.162 L 308.835 20.262 C 308.835 19.248 309.657 18.426 310.671 18.426 L 398.403 18.426 C 399.418 18.426 400.24 19.248 400.24 20.262 L 400.24 21.162 C 400.24 22.176 399.418 22.998 398.403 22.998 Z " fill="rgb(254,254,254)"/><path d=" M 231.049 255.211 C 231.049 255.211 232.338 260.002 235.252 262.36 L 238.715 222.528 C 238.715 222.528 263.55 194.775 257.55 157.344 C 255.495 144.53 249.123 132.737 239.375 124.169 C 233.812 119.278 227.7 116.01 224.098 120.612 C 224.098 120.612 195.963 187.608 176.525 236.546 L 231.049 255.211 Z " fill="rgb(246,189,156)"/><path d=" M 401.592 227.465 L 216.078 227.465 C 209.671 227.465 204.477 232.66 204.477 239.068 L 204.477 315.624 C 204.477 322.032 209.671 327.227 216.078 327.227 L 362.132 327.227 C 368.044 335.475 378.761 350.246 379.707 350.246 C 380.593 350.246 378.886 336.294 377.685 327.227 L 401.592 327.227 C 407.999 327.227 413.195 322.032 413.195 315.624 L 413.195 239.068 C 413.195 232.66 407.999 227.465 401.592 227.465 Z " fill="rgb(52,81,97)"/><path d=" M 364.732 416.99 C 364.732 422.784 360.035 427.48 354.241 427.48 C 348.447 427.48 343.75 422.784 343.75 416.99 C 343.75 411.194 348.447 406.499 354.241 406.499 C 360.035 406.499 364.732 411.194 364.732 416.99 Z " fill="rgb(254,254,254)"/><path d=" M 229.157 159.962 C 236.931 156.386 240.989 136.16 242.442 127.068 C 236.204 120.791 228.379 115.143 224.097 120.611 C 224.097 120.611 217.903 135.364 209.318 156.08 C 215.188 159.348 223.345 162.636 229.157 159.962 Z " fill="rgb(243,159,110)"/><path d=" M 425.037 274.82 C 425.037 274.82 396.186 277.241 395.177 284.908 C 394.169 292.573 396.388 306.091 423.625 308.714 L 451.836 308.714 C 451.836 308.714 443.396 285.311 443.798 284.503 C 444.202 283.697 425.037 274.82 425.037 274.82 Z " fill="rgb(242,169,126)"/><path d=" M 378.748 389.185 C 374.841 391.258 373.48 396.197 375.698 400.025 C 388.974 422.92 441.764 513.916 446.522 521.317 C 451.971 529.791 465.285 549.765 509.468 560.055 C 553.651 570.342 571.809 600 571.809 600 L 707.99 600 C 707.99 600 675.911 549.159 649.28 417.216 C 649.28 417.216 628.703 307.667 589.966 311.297 C 589.966 311.297 566.362 286.483 543.361 291.325 C 543.361 291.325 499.785 265.298 474.969 265.298 L 415.363 194.856 C 409.465 187.884 399.066 186.518 391.813 192.067 C 389.48 193.852 387.701 196.213 387.208 199.327 C 385.393 210.826 400.523 239.878 424.733 274.984 C 448.944 310.087 508.863 421.452 482.837 470.477 C 482.837 470.477 456.207 450.504 433.208 418.426 C 413.948 391.563 391.293 382.527 378.748 389.185 Z " fill="rgb(246,189,156)"/><path d=" M 475.191 265.325 C 483.099 272.096 490.512 279.44 497.513 287.156 C 506.969 297.446 518.906 312.698 525.916 324.48 C 534.755 339.049 540.588 351.822 543.346 367.862 L 543.169 367.898 C 539.994 352.829 531.697 336.599 524.47 325.387 C 519.062 316.62 509.053 302.692 496.434 288.095 C 490.094 280.786 482.055 272.147 475.066 265.457 L 475.191 265.325 Z " fill="rgb(243,159,110)"/><path d=" M 542.974 291.135 C 549.408 294.429 555.147 299.022 560.219 304.214 C 565.351 309.384 569.613 315.248 573.286 321.647 C 576.872 327.996 579.622 334.811 581.467 341.837 C 583.031 348.419 584.043 352.885 584.206 363.303 L 584.025 363.318 C 583.428 356.181 582.124 349.107 580.1 342.242 C 578.057 335.599 575.186 328.46 571.707 322.539 C 568.223 316.292 563.982 310.47 559.164 305.182 C 554.608 300.195 548.647 294.808 542.883 291.293 L 542.974 291.135 Z " fill="rgb(243,159,110)"/><path d=" M 589.465 310.789 C 595.156 315.093 600.919 322.712 603.712 327.86 C 607.228 333.907 610.011 340.925 611.848 348.611 C 613.193 353.525 613.535 358.3 613.745 363.299 L 613.566 363.323 C 612.728 358.479 612.2 354.867 610.475 349 C 607.83 340.109 605.755 335.533 602.209 328.68 C 600.093 324.453 594.595 316.083 589.385 310.923 L 589.465 310.789 Z " fill="rgb(243,159,110)"/><path d=" M 406.235 417.36 C 407.443 411.233 400.303 401.516 393.823 394.184 C 389.778 389.607 383.391 387.896 377.774 389.81 C 374.634 392.135 373.678 396.537 375.698 400.024 C 379.266 406.178 385.687 417.247 393.264 430.292 C 398.935 427.404 405.117 423.032 406.235 417.36 Z " fill="rgb(243,159,110)"/><path d=" M 411.957 222.503 C 415.4 221.814 431.022 216.619 430.065 213.771 L 414.658 195.561 C 411.598 191.946 407.327 189.843 402.914 189.425 L 402.912 189.425 L 402.84 189.418 C 402.715 189.407 402.432 189.385 402.038 189.385 C 399.971 189.389 394.884 189.976 393.765 195.571 C 392.661 201.095 401.805 214.522 405.838 220.105 C 407.231 222.035 409.624 222.971 411.957 222.503 Z " fill="rgb(243,159,110)"/><path d=" M 138.482 504.828 C 155.548 515.314 210.491 546.666 267.302 553.348 C 270.631 553.74 272.971 556.791 271.988 559.427 L 262.063 586.011 C 261.406 587.769 259.429 588.795 257.209 588.526 C 240.466 586.493 171.384 576.095 122.778 538.493 C 121.124 537.213 120.427 535.272 121.045 533.617 L 131.174 506.487 C 132.127 503.932 135.703 503.121 138.482 504.828 Z " fill="rgb(55,56,58)"/><path d=" M 133.496 530.249 L 133.307 530.179 C 132.312 529.806 131.806 528.697 132.177 527.7 L 135.233 519.517 C 135.604 518.52 136.714 518.014 137.71 518.386 L 137.898 518.455 C 138.895 518.829 139.401 519.937 139.029 520.934 L 135.974 529.118 C 135.602 530.114 134.492 530.62 133.496 530.249 Z " fill="rgb(42,44,46)"/><path d=" M 143.715 536.547 L 143.527 536.477 C 142.53 536.104 142.024 534.995 142.396 533.998 L 145.452 525.814 C 145.824 524.817 146.934 524.312 147.929 524.684 L 148.117 524.753 C 149.113 525.126 149.621 526.236 149.248 527.232 L 146.192 535.415 C 145.821 536.413 144.711 536.919 143.715 536.547 Z " fill="rgb(42,44,46)"/><path d=" M 153.95 542.801 L 153.762 542.731 C 152.766 542.359 152.26 541.25 152.632 540.253 L 155.687 532.07 C 156.059 531.073 157.168 530.568 158.165 530.939 L 158.353 531.008 C 159.349 531.381 159.855 532.491 159.484 533.487 L 156.428 541.671 C 156.055 542.668 154.947 543.173 153.95 542.801 Z " fill="rgb(42,44,46)"/><path d=" M 164.484 547.889 L 164.296 547.819 C 163.3 547.446 162.793 546.338 163.165 545.341 L 166.22 537.157 C 166.593 536.161 167.702 535.654 168.698 536.026 L 168.886 536.095 C 169.882 536.469 170.39 537.578 170.017 538.574 L 166.962 546.758 C 166.59 547.755 165.48 548.261 164.484 547.889 Z " fill="rgb(42,44,46)"/><path d=" M 174.846 553.802 L 174.659 553.732 C 173.662 553.359 173.156 552.251 173.528 551.254 L 176.584 543.07 C 176.956 542.074 178.065 541.568 179.061 541.939 L 179.248 542.009 C 180.245 542.382 180.752 543.491 180.379 544.488 L 177.324 552.672 C 176.952 553.669 175.843 554.174 174.846 553.802 Z " fill="rgb(42,44,46)"/><path d=" M 185.666 558.492 L 185.478 558.422 C 184.482 558.049 183.976 556.939 184.348 555.944 L 187.404 547.76 C 187.776 546.763 188.884 546.257 189.881 546.629 L 190.069 546.698 C 191.065 547.072 191.571 548.18 191.2 549.177 L 188.144 557.361 C 187.773 558.357 186.663 558.863 185.666 558.492 Z " fill="rgb(42,44,46)"/><path d=" M 196.699 562.611 L 196.511 562.541 C 195.515 562.168 195.009 561.058 195.38 560.062 L 198.437 551.879 C 198.808 550.881 199.918 550.376 200.914 550.748 L 201.102 550.817 C 202.099 551.19 202.605 552.299 202.232 553.296 L 199.177 561.48 C 198.805 562.476 197.696 562.983 196.699 562.611 Z " fill="rgb(42,44,46)"/><path d=" M 207.945 566.159 L 207.756 566.089 C 206.761 565.718 206.255 564.608 206.626 563.611 L 209.682 555.428 C 210.053 554.431 211.163 553.925 212.159 554.298 L 212.347 554.367 C 213.344 554.739 213.85 555.848 213.478 556.844 L 210.423 565.028 C 210.05 566.025 208.942 566.531 207.945 566.159 Z " fill="rgb(42,44,46)"/><path d=" M 219.647 568.484 L 219.46 568.414 C 218.463 568.041 217.957 566.933 218.329 565.936 L 221.385 557.751 C 221.757 556.756 222.866 556.25 223.862 556.621 L 224.049 556.691 C 225.046 557.064 225.553 558.173 225.18 559.169 L 222.125 567.353 C 221.753 568.35 220.644 568.856 219.647 568.484 Z " fill="rgb(42,44,46)"/><path d=" M 231.042 571.634 L 230.854 571.564 C 229.857 571.192 229.351 570.083 229.723 569.087 L 232.779 560.903 C 233.151 559.906 234.261 559.4 235.256 559.772 L 235.444 559.842 C 236.44 560.215 236.948 561.324 236.575 562.321 L 233.52 570.503 C 233.148 571.501 232.038 572.006 231.042 571.634 Z " fill="rgb(42,44,46)"/><path d=" M 242.872 573.617 L 242.684 573.547 C 241.688 573.174 241.182 572.066 241.553 571.069 L 244.61 562.886 C 244.981 561.889 246.091 561.384 247.086 561.755 L 247.274 561.825 C 248.271 562.197 248.778 563.307 248.405 564.304 L 245.35 572.486 C 244.978 573.484 243.868 573.989 242.872 573.617 Z " fill="rgb(42,44,46)"/><path d=" M 254.719 575.557 L 254.53 575.487 C 253.535 575.115 253.027 574.006 253.4 573.009 L 256.455 564.825 C 256.827 563.829 257.937 563.323 258.933 563.695 L 259.121 563.764 C 260.117 564.138 260.624 565.247 260.252 566.243 L 257.197 574.427 C 256.824 575.424 255.714 575.929 254.719 575.557 Z " fill="rgb(42,44,46)"/><path d=" M 172.205 566.384 L 172.252 566.259 C 172.071 566.236 171.892 566.193 171.714 566.128 L 158.27 561.109 C 156.942 560.614 156.298 559.043 156.834 557.608 L 168.956 525.137 C 169.492 523.704 171.007 522.94 172.335 523.435 L 185.781 528.455 C 186.567 528.749 187.112 529.421 187.315 530.219 C 188.369 530.68 189.432 531.141 190.508 531.598 C 190.867 528.871 189.466 526.215 186.965 525.282 L 173.52 520.263 C 170.573 519.163 167.21 520.857 166.02 524.04 L 153.897 556.514 C 152.708 559.697 154.139 563.181 157.086 564.282 L 170.53 569.301 C 172.547 570.053 174.758 569.496 176.335 568.05 C 174.961 567.506 173.583 566.953 172.205 566.384 Z " fill="rgb(127,195,97)"/><path d=" M 169.255 540.615 L 163.406 538.431 C 162.358 538.04 161.166 538.641 160.742 539.775 C 160.32 540.907 160.827 542.143 161.875 542.534 L 167.724 544.717 L 169.255 540.615 Z " fill="rgb(254,254,254)"/><g opacity="0.199997" style="mix-blend-mode:multiply;"><path d=" M 571.809 600 L 707.989 600 C 707.989 600 686.958 566.663 664.816 483.934 C 655.099 544.85 601.493 541.337 580.217 544.716 C 555.723 548.609 460.635 528.784 447.312 522.536 C 453.239 531.579 467.285 550.23 509.468 560.054 C 553.652 570.342 571.809 600 571.809 600 Z " fill="rgb(246,189,156)"/></g><g opacity="0.199997" style="mix-blend-mode:multiply;"><path d=" M 431.934 286.027 C 458.634 328.931 506.538 427.479 482.838 470.478 L 498.569 486.003 C 498.569 486.003 538.315 441.972 475.066 344.869 C 460.347 322.272 445.718 302.724 431.934 286.027 Z " fill="rgb(246,189,156)"/></g><path d=" M 273.379 277.346 C 273.379 293.409 260.355 306.433 244.292 306.433 C 228.228 306.433 215.205 293.409 215.205 277.346 C 215.205 261.281 228.228 248.259 244.292 248.259 C 260.355 248.259 273.379 261.281 273.379 277.346 Z " fill="rgb(254,254,254)"/><path d=" M 485.097 52.002 L 287.607 52.002 C 281.198 52.002 276.004 57.197 276.004 63.605 L 276.004 145.886 C 276.004 152.295 281.198 157.489 287.607 157.489 L 308.115 157.489 C 306.924 166.547 305.367 179.54 306.221 179.54 C 307.131 179.54 317.084 165.871 323.1 157.489 L 485.097 157.489 C 491.505 157.489 496.7 152.295 496.7 145.886 L 496.7 63.605 C 496.7 57.197 491.505 52.002 485.097 52.002 Z " fill="rgb(65,188,166)"/><path d=" M 343.327 105.037 C 343.327 121.101 330.304 134.123 314.24 134.123 C 298.175 134.123 285.153 121.101 285.153 105.037 C 285.153 88.973 298.175 75.95 314.24 75.95 C 330.304 75.95 343.327 88.973 343.327 105.037 Z " fill="rgb(254,254,254)"/><path d=" M 318.843 128.222 L 310.302 128.222 L 310.302 119.694 L 318.843 119.694 L 318.843 128.222 Z " fill="rgb(246,189,156)"/><path d=" M 318.843 124.806 L 318.843 119.693 L 310.302 119.693 L 310.302 124.042 C 312.14 125.029 314.863 125.597 318.843 124.806 Z " fill="rgb(243,157,108)"/><path d=" M 332.309 104.431 C 331.417 103.991 330.383 104.07 329.447 104.544 C 329.769 96.129 322.896 89.053 314.24 89.351 C 305.583 89.053 298.711 96.129 299.032 104.544 C 298.096 104.07 297.062 103.991 296.17 104.431 C 294.461 105.272 293.93 107.685 294.984 109.819 C 296.038 111.952 298.279 113 299.988 112.158 C 300.225 112.04 300.438 111.891 300.629 111.718 C 301.608 118.674 307.421 123.89 314.24 123.792 C 321.058 123.89 326.872 118.674 327.851 111.718 C 328.042 111.891 328.254 112.04 328.492 112.158 C 330.202 113 332.442 111.952 333.495 109.819 C 334.551 107.685 334.018 105.272 332.309 104.431 Z " fill="rgb(246,189,156)"/><path d=" M 303.84 86.018 C 303.84 86.018 308.126 82.39 317.869 82.976 C 327.611 83.561 329.465 88.645 330.018 95.906 L 329.447 104.544 C 329.447 104.544 326.918 101.944 323.623 94.732 C 323.623 94.732 318.169 100.853 315.793 100.128 C 313.418 99.403 316.691 94.995 316.691 94.995 C 316.691 94.995 305.579 104.558 299.032 104.544 C 299.032 104.544 295.568 93.352 300.43 89.246 C 300.43 89.246 296.768 89.422 296.574 88.701 C 296.381 87.981 298.322 86.903 301.841 87.31 C 301.841 87.31 299.333 82.403 300.734 81.894 C 302.136 81.382 303.84 86.018 303.84 86.018 Z " fill="rgb(36,36,39)"/><path d=" M 319.828 114.37 C 319.453 116.056 317.522 117.382 315.155 117.454 C 312.789 117.527 310.78 116.322 310.302 114.661 L 319.828 114.37 Z " fill="rgb(254,254,254)"/><path d=" M 466.701 80.768 L 355.739 80.768 C 354.413 80.768 353.337 79.692 353.337 78.366 L 353.337 78.115 C 353.337 76.789 354.413 75.713 355.739 75.713 L 466.701 75.713 C 468.028 75.713 469.103 76.789 469.103 78.115 L 469.103 78.366 C 469.103 79.692 468.028 80.768 466.701 80.768 Z " fill="rgb(254,254,254)"/><path d=" M 378.274 94.105 L 355.74 94.105 C 354.412 94.105 353.337 93.03 353.337 91.703 L 353.337 91.453 C 353.337 90.126 354.412 89.051 355.74 89.051 L 378.274 89.051 C 379.602 89.051 380.677 90.126 380.677 91.453 L 380.677 91.703 C 380.677 93.03 379.602 94.105 378.274 94.105 Z " fill="rgb(254,254,254)"/><path d=" M 466.701 94.105 L 393.397 94.105 C 392.07 94.105 390.995 93.03 390.995 91.703 L 390.995 91.453 C 390.995 90.126 392.07 89.051 393.397 89.051 L 466.701 89.051 C 468.028 89.051 469.103 90.126 469.103 91.453 L 469.103 91.703 C 469.103 93.03 468.028 94.105 466.701 94.105 Z " fill="rgb(254,254,254)"/><path d=" M 410.739 107.442 L 355.739 107.442 C 354.412 107.442 353.337 106.367 353.337 105.04 L 353.337 104.79 C 353.337 103.464 354.412 102.388 355.739 102.388 L 410.739 102.388 C 412.067 102.388 413.142 103.464 413.142 104.79 L 413.142 105.04 C 413.142 106.367 412.067 107.442 410.739 107.442 Z " fill="rgb(254,254,254)"/><path d=" M 466.701 107.442 L 424.293 107.442 C 422.965 107.442 421.89 106.367 421.89 105.04 L 421.89 104.79 C 421.89 103.464 422.965 102.388 424.293 102.388 L 466.701 102.388 C 468.028 102.388 469.103 103.464 469.103 104.79 L 469.103 105.04 C 469.103 106.367 468.028 107.442 466.701 107.442 Z " fill="rgb(254,254,254)"/><path d=" M 466.701 120.78 L 355.739 120.78 C 354.413 120.78 353.337 119.704 353.337 118.378 L 353.337 118.127 C 353.337 116.801 354.413 115.725 355.739 115.725 L 466.701 115.725 C 468.028 115.725 469.103 116.801 469.103 118.127 L 469.103 118.378 C 469.103 119.704 468.028 120.78 466.701 120.78 Z " fill="rgb(254,254,254)"/><path d=" M 315.615 257.341 L 281.453 257.341 C 280.126 257.341 279.05 256.266 279.05 254.939 L 279.05 254.689 C 279.05 253.363 280.126 252.287 281.453 252.287 L 315.615 252.287 C 316.941 252.287 318.017 253.363 318.017 254.689 L 318.017 254.939 C 318.017 256.266 316.941 257.341 315.615 257.341 Z " fill="rgb(254,254,254)"/><path d=" M 302.969 270.679 L 281.453 270.679 C 280.126 270.679 279.05 269.603 279.05 268.277 L 279.05 268.026 C 279.05 266.701 280.126 265.624 281.453 265.624 L 302.969 265.624 C 304.295 265.624 305.371 266.701 305.371 268.026 L 305.371 268.277 C 305.371 269.603 304.295 270.679 302.969 270.679 Z " fill="rgb(254,254,254)"/><path d=" M 339.899 270.679 L 312.312 270.679 C 310.986 270.679 309.91 269.603 309.91 268.277 L 309.91 268.026 C 309.91 266.701 310.986 265.624 312.312 265.624 L 339.899 265.624 C 341.225 265.624 342.301 266.701 342.301 268.026 L 342.301 268.277 C 342.301 269.603 341.225 270.679 339.899 270.679 Z " fill="rgb(254,254,254)"/><path d=" M 388.101 270.679 L 349.241 270.679 C 347.915 270.679 346.839 269.603 346.839 268.277 L 346.839 268.026 C 346.839 266.701 347.915 265.624 349.241 265.624 L 388.101 265.624 C 389.428 265.624 390.502 266.701 390.502 268.026 L 390.502 268.277 C 390.502 269.603 389.428 270.679 388.101 270.679 Z " fill="rgb(254,254,254)"/><path d=" M 388.101 257.341 L 326.876 257.341 C 325.549 257.341 324.473 256.266 324.473 254.939 L 324.473 254.689 C 324.473 253.363 325.549 252.287 326.876 252.287 L 388.101 252.287 C 389.428 252.287 390.502 253.363 390.502 254.689 L 390.502 254.939 C 390.502 256.266 389.428 257.341 388.101 257.341 Z " fill="rgb(254,254,254)"/><path d=" M 388.101 296.821 L 281.453 296.821 C 280.126 296.821 279.05 295.745 279.05 294.419 L 279.05 294.169 C 279.05 292.843 280.126 291.767 281.453 291.767 L 388.101 291.767 C 389.428 291.767 390.502 292.843 390.502 294.169 L 390.502 294.419 C 390.502 295.745 389.428 296.821 388.101 296.821 Z " fill="rgb(254,254,254)"/><path d=" M 334.225 284.016 L 281.453 284.016 C 280.127 284.016 279.05 282.94 279.05 281.614 L 279.05 281.363 C 279.05 280.038 280.127 278.961 281.453 278.961 L 334.225 278.961 C 335.551 278.961 336.627 280.038 336.627 281.363 L 336.627 281.614 C 336.627 282.94 335.551 284.016 334.225 284.016 Z " fill="rgb(254,254,254)"/><path d=" M 388.101 284.016 L 347.451 284.016 C 346.125 284.016 345.049 282.94 345.049 281.614 L 345.049 281.363 C 345.049 280.038 346.125 278.961 347.451 278.961 L 388.101 278.961 C 389.428 278.961 390.502 280.038 390.502 281.363 L 390.502 281.614 C 390.502 282.94 389.428 284.016 388.101 284.016 Z " fill="rgb(254,254,254)"/><path d=" M 230.84 264.214 C 230.931 264.481 230.974 264.77 230.994 265.065 C 230.232 265.063 230.179 264.78 230.84 264.214 Z  M 234.891 263.679 C 234.202 264.206 233.431 264.564 232.613 264.816 C 232.559 264.33 232.463 263.851 232.305 263.387 C 231.652 261.463 229.556 261.634 228.561 263.101 C 227.562 264.573 229.053 266.295 230.421 266.649 C 230.603 266.696 230.792 266.725 230.984 266.742 C 230.949 268.537 230.88 270.38 230.637 272.153 C 230.496 273.182 230.265 274.229 229.753 275.141 C 228.678 277.056 227.273 274.287 227.132 273.199 C 226.738 270.151 227.488 267.064 227.003 264.037 C 226.835 262.984 225.239 263.432 225.407 264.475 C 225.946 267.85 223.378 276.867 228.894 277.402 C 232.348 277.738 232.446 271.251 232.527 269.154 C 232.559 268.317 232.638 267.45 232.665 266.586 C 233.805 266.305 234.928 265.719 235.727 265.109 C 236.562 264.471 235.74 263.03 234.891 263.679 Z " fill="rgb(61,183,121)"/><path d=" M 236.91 267.844 C 237.951 267.823 239.211 269.242 239.024 270.28 C 238.887 271.043 236.458 270.805 235.227 270.667 C 235.242 270.476 235.258 270.285 235.271 270.097 C 235.354 268.997 235.591 267.87 236.91 267.844 Z  M 238.551 274.394 C 238.563 275.359 238.503 276.676 237.619 277.288 C 236.451 278.098 235.601 276.235 235.396 275.498 C 235.112 274.482 235.077 273.384 235.121 272.295 C 237.44 272.476 241.183 272.683 240.604 269.42 C 240.064 266.374 235.288 264.713 233.982 268.101 C 233.416 269.566 233.489 271.427 233.484 272.981 C 233.478 274.569 233.615 276.589 234.698 277.857 C 235.662 278.986 237.104 279.295 238.454 278.717 C 239.953 278.078 240.224 275.773 240.206 274.394 C 240.193 273.329 238.538 273.328 238.551 274.394 Z " fill="rgb(61,183,121)"/><path d=" M 248.384 272.166 C 248.304 271.808 247.941 271.561 247.586 271.558 C 246.854 271.555 246.187 271.531 245.461 271.382 C 244.419 271.166 243.976 272.762 245.02 272.978 C 245.651 273.108 246.267 273.171 246.897 273.198 C 247.079 274.426 246.984 275.674 246.696 276.886 C 246.472 277.825 245.797 278.937 244.624 278.373 C 243.546 277.855 243.522 276.311 243.425 275.326 C 243.268 273.728 243.288 272.112 243.21 270.509 C 243.154 269.343 243.086 267.981 243.868 267.007 C 244.444 266.289 246.184 266.646 245.891 267.821 C 245.633 268.857 247.23 269.296 247.488 268.261 C 248.072 265.919 245.784 264.559 243.69 265.208 C 240.415 266.225 241.59 272.221 241.719 274.618 C 241.854 277.161 242.632 280.74 245.975 280.105 C 249.002 279.531 248.863 274.296 248.384 272.166 Z " fill="rgb(61,183,121)"/><path d=" M 251.108 272.321 C 251.065 271.985 251.029 271.66 251.004 271.347 C 250.93 270.397 250.334 265.965 252.115 266.858 C 253.741 267.674 253.859 270.264 253.825 272.199 C 252.921 272.146 252.009 272.421 251.108 272.321 Z  M 251.778 265.008 C 249.542 264.622 249.235 267.462 249.218 269.007 C 249.206 270.168 249.336 271.345 249.453 272.497 C 249.644 274.369 250.316 276.958 249.685 278.795 C 249.337 279.808 250.936 280.239 251.281 279.236 C 251.818 277.674 251.606 275.782 251.346 273.981 C 251.629 273.984 251.914 273.97 252.206 273.944 C 252.706 273.898 253.27 273.768 253.781 273.842 C 253.721 275.659 253.516 277.504 253.824 279.305 C 254.002 280.356 255.597 279.908 255.419 278.864 C 254.791 275.182 257.444 265.99 251.778 265.008 Z " fill="rgb(61,183,121)"/><path d=" M 262.986 278.563 C 262.869 278.322 262.819 278.018 262.761 277.77 C 262.582 277 262.543 276.196 262.498 275.412 C 262.444 274.467 262.435 273.514 262.5 272.57 C 262.661 270.282 263.11 266.807 261.387 264.949 C 259.542 262.957 256.563 264.157 256.125 266.675 C 255.432 270.665 257.8 274.683 257.064 278.728 C 256.876 279.77 258.47 280.216 258.661 279.166 C 259.333 275.47 258.012 271.814 257.724 268.141 C 257.661 267.332 257.646 266.297 258.392 265.778 C 259.208 265.211 260.047 265.81 260.433 266.493 C 261.144 267.754 260.994 269.593 260.944 270.982 C 260.89 272.495 260.396 282.541 263.798 280.006 C 264.636 279.382 263.834 277.967 262.986 278.563 Z " fill="rgb(61,183,121)"/><path d=" M 234.431 291.066 C 234.089 291.066 233.713 290.837 233.656 290.401 C 233.566 289.694 233.301 288.883 233.02 288.026 C 232.451 286.285 231.807 284.311 232.547 282.712 C 232.991 281.753 233.92 281.246 235.232 281.246 C 235.996 281.246 236.741 281.416 237.231 281.561 C 237.443 281.623 237.605 281.765 237.691 281.961 C 237.779 282.164 237.771 282.399 237.669 282.605 L 237.601 282.741 C 237.481 282.981 237.259 283.124 237.009 283.124 C 236.791 283.124 236.577 283.018 236.432 282.849 C 235.985 282.743 235.564 282.687 235.208 282.687 C 233.951 282.687 233.785 283.335 233.77 283.823 C 233.759 284.182 233.778 284.552 233.828 284.945 C 234.02 284.919 234.213 284.881 234.414 284.841 C 234.799 284.765 235.197 284.686 235.612 284.686 C 235.779 284.686 235.936 284.699 236.091 284.725 C 236.448 284.783 236.678 285.075 236.648 285.433 C 236.62 285.783 236.331 286.146 235.898 286.146 C 235.856 286.146 235.814 286.143 235.77 286.136 C 235.675 286.12 235.578 286.112 235.473 286.112 C 235.148 286.112 234.812 286.186 234.457 286.264 C 234.344 286.287 234.229 286.313 234.115 286.335 C 234.183 286.57 234.252 286.805 234.32 287.038 C 234.631 288.093 234.953 289.185 235.1 290.322 C 235.125 290.521 235.073 290.706 234.953 290.843 C 234.829 290.984 234.638 291.066 234.431 291.066 Z " fill="rgb(61,183,121)"/><path d=" M 239.528 285.085 C 239.778 285.442 240.311 285.748 240.873 285.855 C 240.838 285.407 240.725 285.242 240.67 285.186 C 240.624 285.139 240.573 285.119 240.498 285.119 L 240.497 285.119 C 240.315 285.119 240.163 285.069 240.044 284.977 L 240.01 284.977 C 239.845 284.977 239.683 285.014 239.528 285.085 Z  M 238.577 286.189 C 238.434 286.551 238.375 286.936 238.42 287.279 C 238.488 287.804 238.721 288.521 239.17 288.962 C 239.356 289.143 239.676 289.337 239.942 289.337 C 240.086 289.337 240.185 289.277 240.262 289.145 C 240.393 288.921 240.639 288.122 240.779 287.274 C 239.898 287.163 239.106 286.77 238.577 286.189 Z  M 239.741 290.805 C 239.14 290.805 238.557 290.503 238.054 289.931 C 237.322 289.099 236.859 287.772 236.978 286.848 C 237.186 285.223 238.298 283.499 239.948 283.499 C 240.25 283.499 240.56 283.555 240.871 283.671 C 240.935 283.694 240.986 283.725 241.026 283.753 C 241.671 283.961 242.083 284.571 242.231 285.534 C 242.505 285.296 242.707 284.95 242.835 284.497 C 242.851 284.442 242.87 284.379 242.892 284.31 C 242.964 284.08 243.114 283.6 243.027 283.446 C 242.898 283.216 242.899 282.959 243.027 282.741 C 243.162 282.511 243.42 282.362 243.683 282.362 C 243.935 282.362 244.154 282.494 244.283 282.725 C 244.612 283.312 244.594 284.168 244.236 285.074 C 243.828 286.1 243.097 286.912 242.373 287.142 C 242.332 287.155 242.291 287.168 242.249 287.179 C 242.127 288.375 241.903 290.308 240.2 290.746 C 240.048 290.784 239.894 290.805 239.741 290.805 Z " fill="rgb(61,183,121)"/><path d=" M 246.646 285.745 C 247.033 285.986 247.53 286.143 247.987 286.146 C 247.808 285.939 247.574 285.786 247.273 285.786 C 247.235 285.786 247.197 285.788 247.156 285.792 C 247.112 285.798 247.07 285.801 247.029 285.801 C 246.906 285.801 246.789 285.779 246.678 285.735 C 246.668 285.738 246.656 285.742 246.646 285.745 Z  M 245.678 286.711 C 245.562 286.908 245.484 287.125 245.445 287.36 C 245.333 288.04 245.408 289.589 246.359 289.752 C 246.462 289.77 246.564 289.778 246.66 289.778 C 247.053 289.778 247.383 289.628 247.643 289.33 C 248.011 288.909 248.218 288.187 248.195 287.46 C 248.039 287.486 247.879 287.5 247.716 287.5 C 246.946 287.5 246.199 287.205 245.678 286.711 Z  M 246.426 291.222 C 245.815 291.209 245.272 290.959 244.855 290.497 C 244.134 289.698 243.893 288.383 243.973 287.434 C 244.113 285.787 245.365 284.517 247.089 284.275 C 247.125 284.269 247.16 284.267 247.195 284.267 C 247.355 284.267 247.504 284.318 247.633 284.414 C 248.096 284.495 248.512 284.765 248.856 285.209 C 249.124 284.678 249.231 284.075 249.126 283.607 C 249.077 283.386 249.124 283.17 249.261 282.998 C 249.404 282.82 249.63 282.711 249.864 282.711 C 250.195 282.711 250.456 282.924 250.531 283.252 C 250.76 284.278 250.455 285.826 249.559 286.747 C 249.649 287.14 249.682 287.529 249.652 287.86 C 249.496 289.533 248.459 291.222 246.489 291.222 L 246.426 291.222 Z " fill="rgb(61,183,121)"/><path d=" M 253.206 287.045 C 252.436 287.045 251.896 287.607 251.702 288.163 C 251.491 288.768 251.665 289.369 252.169 289.768 C 252.472 290.01 252.756 290.137 252.992 290.137 C 253.549 290.137 253.817 289.419 253.829 288.907 C 253.836 288.58 253.838 288.23 253.795 287.878 C 253.762 287.614 253.731 287.349 253.702 287.082 C 253.69 287.078 253.678 287.074 253.666 287.07 C 253.635 287.074 253.606 287.075 253.577 287.075 C 253.539 287.075 253.501 287.072 253.461 287.067 C 253.374 287.053 253.29 287.045 253.206 287.045 Z  M 253.056 291.617 C 252.864 291.617 252.665 291.587 252.465 291.525 C 251.012 291.083 250.154 289.841 250.282 288.36 C 250.403 286.94 251.414 285.828 252.748 285.637 L 252.756 285.634 C 252.92 285.576 253.09 285.548 253.274 285.548 C 253.361 285.548 253.448 285.554 253.531 285.565 C 253.445 284.813 253.349 284.034 253.226 283.28 C 253.19 283.058 253.249 282.845 253.39 282.678 C 253.538 282.503 253.763 282.4 253.99 282.4 C 254.322 282.4 254.582 282.625 254.638 282.96 C 254.73 283.527 254.781 284.104 254.83 284.662 C 254.879 285.223 254.93 285.803 255.024 286.363 L 255.09 286.741 C 255.218 287.464 255.35 288.21 255.276 288.946 C 255.165 290.02 254.483 291.617 253.056 291.617 Z " fill="rgb(61,183,121)"/><path d=" M 260.457 282.9 C 259.443 283.287 258.59 283.944 257.618 284.411 C 256.897 284.759 257.528 285.829 258.245 285.483 C 259.115 285.065 259.881 284.442 260.786 284.098 C 261.528 283.817 261.207 282.616 260.457 282.9 Z " fill="rgb(61,183,121)"/><path d=" M 261.063 286.9 C 260.089 286.7 259.128 286.613 258.139 286.74 C 257.356 286.841 257.345 288.084 258.139 287.982 C 259.019 287.869 259.864 287.918 260.733 288.098 C 261.514 288.258 261.847 287.063 261.063 286.9 Z " fill="rgb(61,183,121)"/><path d=" M 261.089 291.807 C 260.325 290.639 258.744 290.312 258.054 289.117 C 257.654 288.424 256.581 289.05 256.982 289.744 C 257.324 290.336 257.836 290.753 258.388 291.139 C 258.944 291.528 259.636 291.85 260.017 292.434 C 260.453 293.101 261.528 292.479 261.089 291.807 Z " fill="rgb(61,183,121)"/><path d=" M 230.036 283.308 C 228.966 282.567 227.689 282.319 226.519 281.79 C 225.795 281.463 225.164 282.534 225.893 282.862 C 227.058 283.388 228.347 283.644 229.409 284.38 C 230.07 284.837 230.689 283.76 230.036 283.308 Z " fill="rgb(61,183,121)"/><path d=" M 229.792 286.051 C 228.483 285.976 227.165 286.11 225.861 286.188 C 225.065 286.237 225.061 287.479 225.861 287.43 C 227.165 287.351 228.483 287.218 229.792 287.292 C 230.591 287.339 230.587 286.096 229.792 286.051 Z " fill="rgb(61,183,121)"/><path d=" M 229.892 288.688 C 228.711 289.267 227.66 290.115 226.385 290.488 C 225.619 290.71 225.944 291.909 226.715 291.683 C 228.102 291.28 229.237 290.388 230.519 289.759 C 231.238 289.407 230.608 288.336 229.892 288.688 Z " fill="rgb(61,183,121)"/></g></g></svg>